<svg xmlns="http://www.w3.org/2000/svg" width="512" height="512" viewBox="0 0 512 512">
  <defs>
    <linearGradient id="bg" x1="0%" y1="0%" x2="100%" y2="100%">
      <stop offset="0%" stop-color="#0a1324"/>
      <stop offset="55%" stop-color="#17396d"/>
      <stop offset="100%" stop-color="#1b7eea"/>
    </linearGradient>
    <linearGradient id="glow" x1="0%" y1="0%" x2="100%" y2="0%">
      <stop offset="0%" stop-color="#27e46a"/>
      <stop offset="100%" stop-color="#1ac8ff"/>
    </linearGradient>
    <linearGradient id="text" x1="0%" y1="0%" x2="100%" y2="100%">
      <stop offset="0%" stop-color="#9fffe2"/>
      <stop offset="100%" stop-color="#ffffff"/>
    </linearGradient>
    <filter id="shadow" x="-20%" y="-20%" width="140%" height="140%">
      <feDropShadow dx="0" dy="16" stdDeviation="18" flood-color="#04101f" flood-opacity="0.45"/>
    </filter>
  </defs>

  <rect x="20" y="20" width="472" height="472" rx="112" fill="url(#bg)"/>
  <rect x="34" y="34" width="444" height="444" rx="98" fill="none" stroke="rgba(255,255,255,0.12)"/>

  <path d="M92 394 C158 342, 218 322, 286 314 C334 308, 388 314, 430 344" fill="none" stroke="rgba(255,255,255,0.08)" stroke-width="18" stroke-linecap="round"/>
  <path d="M110 128 H194" stroke="#1fdf64" stroke-width="14" stroke-linecap="round"/>
  <path d="M320 128 H404" stroke="#1fdf64" stroke-width="14" stroke-linecap="round"/>
  <path d="M100 156 H186" stroke="#1fdf64" stroke-width="10" stroke-linecap="round" opacity="0.85"/>
  <path d="M328 156 H412" stroke="#1fdf64" stroke-width="10" stroke-linecap="round" opacity="0.85"/>

  <g filter="url(#shadow)">
    <rect x="204" y="82" width="42" height="42" rx="14" fill="#21e165"/>
    <rect x="238" y="54" width="42" height="42" rx="14" fill="#21e165"/>
    <rect x="272" y="82" width="42" height="42" rx="14" fill="#21e165"/>
    <rect x="306" y="110" width="42" height="42" rx="14" fill="#21e165"/>
    <rect x="272" y="138" width="42" height="42" rx="14" fill="#21e165"/>
    <rect x="238" y="166" width="42" height="42" rx="14" fill="#21e165"/>
    <rect x="204" y="138" width="42" height="42" rx="14" fill="#21e165"/>
    <circle cx="360" cy="96" r="14" fill="#21e165"/>
  </g>

  <circle cx="158" cy="108" r="62" fill="rgba(255,255,255,0.08)"/>
  <circle cx="398" cy="392" r="74" fill="rgba(39,228,106,0.12)"/>

  <text x="92" y="348" fill="url(#text)" font-size="170" font-family="Segoe UI Variable, Segoe UI, Arial, sans-serif" font-weight="800" letter-spacing="-8">TC</text>
  <path d="M120 370 H392" stroke="url(#glow)" stroke-width="10" stroke-linecap="round" opacity="0.9"/>
</svg>
